<svg width="46" height="46" fill="none" xmlns="http://www.w3.org/2000/svg">
  <path d="M44 23c0 11.598-9.402 21-21 21S2 34.598 2 23 11.402 2 23 2s21 9.402 21 21Z" stroke="#2d9cdb" stroke-width="4"/>
  <path d="M13.462 19.64c1.056 0 1.878.264 2.466.792.588.528.882 1.392.882 2.592V29h-2.682v-5.418c0-1.152-.576-1.728-1.728-1.728-.276 0-.558.042-.846.126-.288.084-.51.186-.666.306L10.852 29H8.18799V16.292H10.888v4.014c.828-.444 1.686-.666 2.574-.666ZM19.0659 26.462h2.61V29h-2.61v-2.538ZM24.4111 29V15.9922h2.5576l3.6036 10.0635 3.7089-10.0635h2.2852V29h-1.7227V18.418l-3.5859 9.7119h-1.7842l-3.4804-9.7383V29h-1.5821Z" fill="#fff"/>
</svg>
